<svg id="Capa_1" enable-background="new 0 0 512.054 512.054" height="512" viewBox="0 0 512.054 512.054" width="512" xmlns="http://www.w3.org/2000/svg"><g><path d="m280.868 512.054-190.841-190.841v-81.213h121.5c23.948 0 46.029-11.479 59.966-30h-181.466v-90h181.466c-13.937-18.52-36.018-30-59.966-30h-121.5v-90h332v90h-63.581c4.91 9.6 8.886 19.669 11.831 30h51.75v90h-51.738c-18.653 65.767-76.748 113.597-144.791 119.405l119.01 119.009zm-160.841-203.267 160.841 160.841 21.214-21.214-148.416-148.414h57.861c63.898 0 119.533-45.419 132.286-107.995l2.447-12.005h45.767v-30h-45.767l-2.447-12.005c-4.009-19.67-12.201-37.831-24.349-53.977l-18.07-24.018h90.633v-30h-272v30h91.5c44.363 0 84.145 28.125 98.99 69.986l7.097 20.014h-197.587v30h197.587l-7.097 20.014c-14.846 41.861-54.627 69.986-98.99 69.986h-91.5z"/></g></svg>